<?xml version="1.0" standalone="no"?><!DOCTYPE svg PUBLIC "-//W3C//DTD SVG 1.1//EN" "http://www.w3.org/Graphics/SVG/1.1/DTD/svg11.dtd"><svg t="1625822348753" class="icon" viewBox="0 0 1070 1024" version="1.1" xmlns="http://www.w3.org/2000/svg" p-id="2054" xmlns:xlink="http://www.w3.org/1999/xlink" width="133.75" height="128"><defs><style type="text/css"></style></defs><path d="M124.367 789.6s456.9 102.3 832.4 52.8-301.6-184.2-301.6-184.2l-530.8 131.4z" fill="#F0F0F0" p-id="2055"></path><path d="M850.967 472.2c-3.2-0.7-6.4-1.1-9.8-1.1h-702.7c-15.3 0-28.9 7.6-38.2 19.7-3.4 4.4-6.2 9.4-8.3 14.8 0.8-5 1.8-10 2.9-14.9l1.8-7.8c28.4-114.5 120.9-198.4 230.7-198.7l139 49.9 384.6 138.1z" fill="#FFE200" p-id="2056"></path><path d="M891.867 528.8v208.7c0 31.8-22.7 57.6-50.8 57.6h-702.6c-28 0-50.8-25.8-50.8-57.6V528.8c0-5.6 0.7-11 2-16.1 6.2-24 25.7-41.5 48.8-41.5h702.7c23.1 0 42.6 17.5 48.8 41.5 1.2 5 1.9 10.5 1.9 16.1z" fill="#FFE53C" p-id="2057"></path><path d="M841.167 795.1c28 0 50.8-25.8 50.8-57.6V528.8c0-5.6-0.7-11-2-16.1-20.1 10.1-187 256.3-589.4 282.4h540.6z" fill="#FDE300" p-id="2058"></path><path d="M891.867 719v18.4c0 31.8-22.7 57.6-50.8 57.6h-702.6c-28 0-50.8-25.8-50.8-57.6V719c0 31.8 22.7 57.6 50.8 57.6h702.7c28 0 50.7-25.8 50.7-57.6z" fill="#FFE250" p-id="2059"></path><path d="M889.867 512.6h-800.2c6.2-24 25.7-41.5 48.8-41.5h702.7c23.1 0 42.6 17.5 48.7 41.5z" fill="#FFBA00" p-id="2060"></path><path d="M87.667 468.8v2.4-2.4z" fill="#FFDB60" p-id="2061"></path><path d="M88.667 471.2v-2.4 2.4z" fill="#FFB400" p-id="2062"></path><path d="M383.467 468.5v0.3-0.3z m0 0h3.8v0.3h-3.8z" fill="#FFDB60" p-id="2063"></path><path d="M387.367 468.5h3.8v0.3h-3.8z" fill="#FFDA5F" p-id="2064"></path><path d="M391.167 468.5h3.8v0.3h-3.8z" fill="#FFDA5E" p-id="2065"></path><path d="M394.967 468.5h3.8v0.3h-3.8z" fill="#FFD95D" p-id="2066"></path><path d="M398.867 468.5h3.8v0.3h-3.8z" fill="#FFD95C" p-id="2067"></path><path d="M402.667 468.5h3.8v0.3h-3.8z" fill="#FFD85B" p-id="2068"></path><path d="M406.467 468.5h3.8v0.3h-3.8z" fill="#FFD859" p-id="2069"></path><path d="M410.267 468.5h3.8v0.3h-3.8z" fill="#FFD758" p-id="2070"></path><path d="M414.167 468.5h3.8v0.3h-3.8z" fill="#FFD757" p-id="2071"></path><path d="M417.967 468.5h3.8v0.3h-3.8z" fill="#FFD656" p-id="2072"></path><path d="M421.767 468.5h3.8v0.3h-3.8z" fill="#FFD655" p-id="2073"></path><path d="M425.667 468.5h3.8v0.3h-3.8z" fill="#FFD554" p-id="2074"></path><path d="M429.467 468.5h3.8v0.3h-3.8z" fill="#FFD552" p-id="2075"></path><path d="M433.267 468.5h3.8v0.3h-3.8z" fill="#FFD451" p-id="2076"></path><path d="M437.067 468.5h3.8v0.3h-3.8z" fill="#FFD450" p-id="2077"></path><path d="M440.967 468.5h3.8v0.3h-3.8z" fill="#FFD34F" p-id="2078"></path><path d="M444.767 468.5h3.8v0.3h-3.8z" fill="#FFD34E" p-id="2079"></path><path d="M448.567 468.5h3.8v0.3h-3.8z" fill="#FFD24D" p-id="2080"></path><path d="M452.467 468.5h3.8v0.3h-3.8z" fill="#FFD24B" p-id="2081"></path><path d="M456.267 468.5h3.8v0.3h-3.8z" fill="#FFD14A" p-id="2082"></path><path d="M460.067 468.5h3.8v0.3h-3.8z" fill="#FFD149" p-id="2083"></path><path d="M463.867 468.5h3.8v0.3h-3.8z" fill="#FFD048" p-id="2084"></path><path d="M467.767 468.5h3.8v0.3h-3.8z" fill="#FFD046" p-id="2085"></path><path d="M471.567 468.5h3.8v0.3h-3.8z" fill="#FFCF45" p-id="2086"></path><path d="M475.367 468.5h3.8v0.3h-3.8z" fill="#FFCF44" p-id="2087"></path><path d="M479.267 468.5h3.8v0.3h-3.8z" fill="#FFCE43" p-id="2088"></path><path d="M483.067 468.5h3.8v0.3h-3.8z" fill="#FFCE42" p-id="2089"></path><path d="M486.867 468.5h3.8v0.3h-3.8z" fill="#FFCD40" p-id="2090"></path><path d="M490.667 468.5h3.8v0.3h-3.8z" fill="#FFCD3F" p-id="2091"></path><path d="M494.567 468.5h3.8v0.3h-3.8z" fill="#FFCC3E" p-id="2092"></path><path d="M498.367 468.5h3.8v0.3h-3.8z" fill="#FFCC3C" p-id="2093"></path><path d="M502.167 468.5h3.8v0.3h-3.8z" fill="#FFCB3B" p-id="2094"></path><path d="M506.067 468.5h3.8v0.3h-3.8z" fill="#FFCB3A" p-id="2095"></path><path d="M509.867 468.5h3.8v0.3h-3.8z" fill="#FFCA39" p-id="2096"></path><path d="M513.667 468.5h3.8v0.3h-3.8z" fill="#FFCA37" p-id="2097"></path><path d="M517.467 468.5h3.8v0.3h-3.8z" fill="#FFC936" p-id="2098"></path><path d="M521.367 468.5h3.8v0.3h-3.8z" fill="#FFC934" p-id="2099"></path><path d="M525.167 468.5h3.8v0.3h-3.8z" fill="#FFC833" p-id="2100"></path><path d="M528.967 468.5h3.8v0.3h-3.8z" fill="#FFC832" p-id="2101"></path><path d="M532.867 468.5h3.8v0.3h-3.8z" fill="#FFC72F" p-id="2102"></path><path d="M536.667 468.5h3.8v0.3h-3.8z" fill="#FFC62E" p-id="2103"></path><path d="M540.467 468.5h3.8v0.3h-3.8z" fill="#FFC62C" p-id="2104"></path><path d="M544.267 468.5h3.8v0.3h-3.8z" fill="#FFC52B" p-id="2105"></path><path d="M548.167 468.5h3.8v0.3h-3.8z" fill="#FFC529" p-id="2106"></path><path d="M551.967 468.5h3.8v0.3h-3.8z" fill="#FFC427" p-id="2107"></path><path d="M555.767 468.5h3.8v0.3h-3.8z" fill="#FFC426" p-id="2108"></path><path d="M559.567 468.5h3.8v0.3h-3.8z" fill="#FFC324" p-id="2109"></path><path d="M563.467 468.5h3.8v0.3h-3.8z" fill="#FFC322" p-id="2110"></path><path d="M567.267 468.5h3.8v0.3h-3.8z" fill="#FFC221" p-id="2111"></path><path d="M571.067 468.5h3.8v0.3h-3.8z" fill="#FFC21F" p-id="2112"></path><path d="M574.967 468.5h3.8v0.3h-3.8z" fill="#FFC11D" p-id="2113"></path><path d="M578.767 468.5h3.8v0.3h-3.8z" fill="#FFC11B" p-id="2114"></path><path d="M582.567 468.5h3.8v0.3h-3.8z" fill="#FFC019" p-id="2115"></path><path d="M586.367 468.5h3.8v0.3h-3.8z" fill="#FFC017" p-id="2116"></path><path d="M590.267 468.5h3.8v0.3h-3.8z" fill="#FFBF15" p-id="2117"></path><path d="M594.067 468.5h3.8v0.3h-3.8z" fill="#FFBF12" p-id="2118"></path><path d="M597.867 468.5h3.8v0.3h-3.8z" fill="#FFBE10" p-id="2119"></path><path d="M601.767 468.5h3.8v0.3h-3.8z" fill="#FFBE0D" p-id="2120"></path><path d="M605.567 468.5h3.8v0.3h-3.8z" fill="#FFBD0A" p-id="2121"></path><path d="M609.367 468.5h3.8v0.3h-3.8z" fill="#FFBD06" p-id="2122"></path><path d="M613.167 468.5h3.8v0.3h-3.8z" fill="#FFBC03" p-id="2123"></path><path d="M617.067 468.5h3.8v0.3h-3.8z" fill="#FFBC00" p-id="2124"></path><path d="M620.867 468.5h3.8v0.3h-3.8z m3.8 0h3.8v0.3h-3.8z" fill="#FFBB00" p-id="2125"></path><path d="M628.567 468.5h3.8v0.3h-3.8z m3.8 0h3.8v0.3h-3.8z" fill="#FFBA00" p-id="2126"></path><path d="M636.167 468.5h3.8v0.3h-3.8z m3.8 0h3.8v0.3h-3.8z" fill="#FFB900" p-id="2127"></path><path d="M643.867 468.5h3.8v0.3h-3.8z m3.8 0h3.8v0.3h-3.8z" fill="#FFB800" p-id="2128"></path><path d="M651.467 468.5h3.8v0.3h-3.8z m3.9 0h3.8v0.3h-3.8z" fill="#FFB700" p-id="2129"></path><path d="M659.167 468.5h3.8v0.3h-3.8z m3.8 0h3.8v0.3h-3.8z" fill="#FFB600" p-id="2130"></path><path d="M666.767 468.5h3.8v0.3h-3.8z m3.9 0h3.8v0.3h-3.8z" fill="#FFB500" p-id="2131"></path><path d="M674.467 468.5h3.8v0.3h-3.8z m3.8 0.3v-0.3 0.3z" fill="#FFB400" p-id="2132"></path><path d="M88.467 580.6h803.5v24.9h-803.5zM88.467 686.7h803.5v24.9h-803.5z" fill="#FFBA00" p-id="2133"></path><path d="M332.267 286.1l4.4 1.6c-100.6 10.2-180.7 83.8-210.7 185.6-9.9 3.1-18.7 9.3-25.3 17.5-3.5 4.4-6.4 9.4-8.6 14.8 0.9-5 1.9-10 3-14.9 0.6-2.6 1.2-5.2 1.9-7.8 29.4-114.5 116.3-198.4 230.4-198.7l4.9 1.9z" fill="#FFF24F" p-id="2134"></path><path d="M510.467 538.3c-7.7-6.9-14.7-19.7-21.8-36.2-1.8-4.2-3.7-7.6-5.5-10.1 3.2 2.4 6.6 7.1 9.9 14.7 5.7 13.4 11.4 24.3 17.4 31.6z" fill="#FFF7EA" p-id="2135"></path><path d="M560.267 347.6v0.4-0.4z" fill="#FFDB60" p-id="2136"></path><path d="M561.467 348v-0.4 0.4z" fill="#FFB400" p-id="2137"></path><path d="M489.067 518.9s-10.9-21.7-17.5-15.7 0 127.2-37.6 142.7c-22.5 9.2 6.8-154.1 6.8-154.1s17.3-9.4 20.5-9.7c3.2-0.3 22.2-5.1 21.7-3.9-0.6 1.2 6.5 12.7 6.1 18.2-0.4 5.3 0 22.5 0 22.5z" fill="#873D00" p-id="2138"></path><path d="M411.467 302.5c-71.1-22-132.8 11.5-139.4 36.9-9.7 37.1-49.3 24.7-62.6 48.4-13.4 23.8-4.6 57.6 76.5 71.7 81.1 14.1 104.7 2.7 104.6 70.6-0.1 80.7 34.8 144.5 54 103 22.9-49.5 10.4-113.4 10.4-129.2s14.2-29.2 26.8 0c21.4 49.9 41.7 66.5 83.3-5.8 28.6-49.7 104.7 1.4 135.1-50.9 38.8-66.9-74-62.2-98.5-86.9-38.4-38.7-190.2-57.8-190.2-57.8z" fill="#A04B00" p-id="2139"></path><path d="M375.167 459.8c-17.9-20.7-68.2-8.3-92.3-0.8 1.1 0.2 2 0.4 3.1 0.6 80.6 14 99.4 3.1 104.5 69.5-0.5-27.2-4-56.3-15.3-69.3z" fill="#BD4F00" p-id="2140"></path><path d="M349.967 303.4s-55 6.6-63.5 32.5c-8.4 25.8 6.2 0.8 16.8-4.4 10.7-5.2 15.2-3.1 21.3-6.1 6.2-3-3.8-10 6.5-10.2s8.7 4.8 13.7-3.5c5.2-8.3 15.8-10.1 5.2-8.3zM237.367 398.3s-3.7 33.4 65.2 37.7c68.9 4.3-20.3 0.7-36-18.8-15.7-19.7-25-54.1-29.2-18.9zM452.367 568.7s-0.3 57.7-20.9 64.1c-20.6 6.5 5.2-15.7 6.8-32.1 1.5-16.4 15-48.8 14.1-32z" fill="#FFFFFF" p-id="2141"></path><path d="M274.867 448.4c-50.2-13.4-55.9-49.6-54.5-71.1-4.4 2.6-8.2 5.9-10.9 10.7-13.4 23.8-4.6 57.6 76.5 71.7 2.9 0.5 5.6 0.9 8.4 1.4 9.6-1.6 8.9-5.1-19.5-12.7z" fill="#CD5200" p-id="2142"></path><path d="M586.467 473.7s-20 1.4-33.3 31.9c-13.3 30.5-26.5-30.8 7.1-36.8 33.6-6 72.7 1.5 55.4 1.8-17.3 0.4-21.8 0.9-29.2 3.1zM295.804 339.911a7.6 11 64.702 1 0 19.89-9.4 7.6 11 64.702 1 0-19.89 9.4z" fill="#FFFFFF" p-id="2143"></path><path d="M695.567 442.6c-20.6 57.3-89.7 7.6-118.3 57.3-30.2 52.3-61.4 56.5-77.7 36.7 15.3 13.6 33.5 4.6 60.9-43 28.7-49.8 114.5 6.3 135.1-51" fill="#873D00" p-id="2144"></path><path d="M140.267 421.8s24.2-59.8 64-73-22.1 32.3-24.4 53.7c-2.3 21.5-56 68.6-39.6 19.3zM153.967 748.2c-7.6 0-13.9-6.2-13.9-13.9V624.9c0-7.6 6.2-13.9 13.9-13.9 7.6 0 13.9 6.2 13.9 13.9v109.5c0 7.6-6.2 13.8-13.9 13.8zM153.967 584.6c-7.6 0-13.9-6.2-13.9-13.9v-1.5c0-7.6 6.2-13.9 13.9-13.9 7.6 0 13.9 6.2 13.9 13.9v1.5c0 7.6-6.2 13.9-13.9 13.9z" fill="#FFFFFF" p-id="2145"></path><path d="M191.767 421c-4.2 8.5-13.2 12.2-20.1 8.5-6.9-3.8-9.1-13.7-4.9-22.1 4.2-8.5 13.2-12.2 20.1-8.5 6.9 3.7 9.1 13.6 4.9 22.1z" fill="#FFFFFF" p-id="2146"></path><path d="M438.967 398.9a90.4 11.4 0 1 0 180.8 0 90.4 11.4 0 1 0-180.8 0z" fill="#873D00" p-id="2147"></path><path d="M503.067 351.1a51.5 51.5 0 1 0 103 0 51.5 51.5 0 1 0-103 0z" fill="#51C208" p-id="2148"></path><path d="M554.567 299.6c-28.4 0-51.5 23-51.5 51.5 0 11.2 3.7 21.5 9.8 30 8.5 6.1 18.8 9.8 30 9.8 28.4 0 51.5-23 51.5-51.5 0-11.2-3.7-21.5-9.8-30-8.5-6.1-18.8-9.8-30-9.8z" fill="#5CD21C" p-id="2149"></path><path d="M595.667 332.5s-8.2 0.5-5.1-5.4c11.3-8.3 78-36 68.8-81.5-0.8-5 5.4-4.1 6.5 5.2 1 9.4-8.8 44.5-70.2 81.7z" fill="#4FAD1E" p-id="2150"></path><path d="M512.867 381c5.7 4.1 12.3 7 19.5 8.5 10.7-24.2 10.7-60.4 10.7-60.4l-38.5 33.3c1.6 6.9 4.4 13.2 8.3 18.6z" fill="#5BC324" p-id="2151"></path><path d="M372.967 316.8a85.8 85.8 0 1 0 171.6 0 85.8 85.8 0 1 0-171.6 0z" fill="#F94A43" p-id="2152"></path><path d="M379.367 323.6c0-47.4 38.4-85.8 85.8-85.8 23.2 0 44.3 9.3 59.7 24.3-15.7-19-39.5-31.1-66.1-31.1-47.4 0-85.8 38.4-85.8 85.8 0 24.1 10 45.9 26 61.5-12.3-14.9-19.6-33.9-19.6-54.7z" fill="#FFFFFF" p-id="2153"></path><path d="M544.467 316.8c0 47.4-38.4 85.8-85.8 85.8-30.3 0-56.9-15.7-72.1-39.4 13.4 8.6 29.3 13.6 46.4 13.6 47.4 0 85.8-38.4 85.8-85.8 0-17.1-5-33-13.6-46.4 23.7 15.3 39.3 41.9 39.3 72.2z" fill="#F2301E" p-id="2154"></path><path d="M583.467 238.6s63.1-34 33.3-76.8c0 0-50.4 22.3-33.3 76.8z" fill="#69C23F" p-id="2155"></path><path d="M507.267 258.5z m0 0z" fill="#DA2915" p-id="2156"></path><path d="M507.267 258.5z m0 0z" fill="#D73632" p-id="2157"></path><path d="M510.067 270.9z m0 0z" fill="#DA2915" p-id="2158"></path><path d="M510.067 270.9z m0 0z" fill="#D73632" p-id="2159"></path><path d="M510.034 270.925a10.7 6.8 44.991 1 0 9.615-9.618 10.7 6.8 44.991 1 0-9.615 9.618z" fill="#E4190D" p-id="2160"></path><path d="M512.267 259.9s-0.8 12.3 8 7.6c12.5-16.8 50.4-115.7 122.9-101.7 7.5 1.3 6.1-8-7.7-9.7-14.1-1.7-66.7 12.5-123.2 103.8z" fill="#4FAD1E" p-id="2161"></path><path d="M402.71 285.156a9.1 17.8 52.807 1 0 28.36-21.52 9.1 17.8 52.807 1 0-28.36 21.52z" fill="#FFFFFF" p-id="2162"></path><path d="M425.822 275.505a5.2 7.1 52.807 1 0 11.312-8.584 5.2 7.1 52.807 1 0-11.312 8.584zM547.45 316.923a4.2 8.2 72.176 1 0 15.613-5.02 4.2 8.2 72.176 1 0-15.613 5.02z" fill="#FFFFFF" p-id="2163"></path><path d="M559.29 317.183a3.3 4.5 72.176 1 0 8.568-2.755 3.3 4.5 72.176 1 0-8.568 2.755z" fill="#FFFFFF" p-id="2164"></path></svg>